<svg width="3448" height="1183" xmlns="http://www.w3.org/2000/svg" xmlns:xlink="http://www.w3.org/1999/xlink" xml:space="preserve" overflow="hidden"><g transform="translate(-476 -876)"><rect x="478.5" y="878.5" width="3443" height="1178" stroke="#2F528F" stroke-width="4.58333" stroke-miterlimit="8" fill="#FFFFFF"/><rect x="3111.5" y="944.5" width="761" height="852" stroke="#000000" stroke-width="4.58333" stroke-miterlimit="8" fill="#FFFFFF"/><text font-family="Calibri,Calibri_MSFontService,sans-serif" font-weight="400" font-size="64" transform="matrix(1 0 0 1 3279.1 1779)">Database Server</text><path d="M3280.5 1183.5C3280.5 1216.08 3394.44 1242.5 3535 1242.5 3675.56 1242.5 3789.5 1216.08 3789.5 1183.5L3789.5 1537.5C3789.5 1570.08 3675.56 1596.5 3535 1596.5 3394.44 1596.5 3280.5 1570.08 3280.5 1537.5Z" fill="#767171" fill-rule="evenodd"/><path d="M3280.5 1183.5C3280.5 1150.92 3394.44 1124.5 3535 1124.5 3675.56 1124.5 3789.5 1150.92 3789.5 1183.5 3789.5 1216.08 3675.56 1242.5 3535 1242.5 3394.44 1242.5 3280.5 1216.08 3280.5 1183.5Z" fill="#ADAAAA" fill-rule="evenodd"/><path d="M3789.5 1183.5C3789.5 1216.08 3675.56 1242.5 3535 1242.5 3394.44 1242.5 3280.5 1216.08 3280.5 1183.5 3280.5 1150.92 3394.44 1124.5 3535 1124.5 3675.56 1124.5 3789.5 1150.92 3789.5 1183.5L3789.5 1537.5C3789.5 1570.08 3675.56 1596.5 3535 1596.5 3394.44 1596.5 3280.5 1570.08 3280.5 1537.5L3280.5 1183.5" stroke="#000000" stroke-width="4.58333" stroke-miterlimit="8" fill="none" fill-rule="evenodd"/><text fill="#FFFFFF" font-family="Calibri,Calibri_MSFontService,sans-serif" font-weight="400" font-size="50" transform="matrix(1 0 0 1 3438.84 1407)">Database</text><rect x="521.5" y="944.5" width="723" height="847" stroke="#AE5A21" stroke-width="4.58333" stroke-miterlimit="8" fill="#FBE5D6"/><text font-family="Calibri,Calibri_MSFontService,sans-serif" font-weight="400" font-size="64" transform="matrix(1 0 0 1 807.163 1774)">Client</text><rect x="580.5" y="1137.5" width="611" height="459" stroke="#AE5A21" stroke-width="4.58333" stroke-miterlimit="8" fill="#F4B183"/><text fill="#FFFFFF" font-family="Calibri,Calibri_MSFontService,sans-serif" font-weight="400" font-size="50" transform="matrix(1 0 0 1 767.147 1385)">HTTP Client</text><rect x="1322.5" y="949.5" width="1740" height="847" stroke="#70AD47" stroke-width="4.58333" stroke-miterlimit="8" fill="#E2F0D9"/><text font-family="Calibri,Calibri_MSFontService,sans-serif" font-weight="400" font-size="64" transform="matrix(1 0 0 1 1856.72 1779)">Web &amp; Application Server</text><rect x="1414.5" y="1124.5" width="640" height="472" stroke="#FFC000" stroke-width="4.58333" stroke-miterlimit="8" fill="#FFE699"/><text font-family="Calibri,Calibri_MSFontService,sans-serif" font-weight="400" font-size="37" transform="matrix(1 0 0 1 1605.34 1586)">ASP.NET Website</text><path d="M1516.5 1212.17C1516.5 1197.44 1528.44 1185.5 1543.17 1185.5L1794.83 1185.5C1809.56 1185.5 1821.5 1197.44 1821.5 1212.17L1821.5 1318.83C1821.5 1333.56 1809.56 1345.5 1794.83 1345.5L1543.17 1345.5C1528.44 1345.5 1516.5 1333.56 1516.5 1318.83Z" stroke="#BC8C00" stroke-width="4.58333" stroke-miterlimit="8" fill="#FFC000" fill-rule="evenodd"/><text fill="#FFFFFF" font-family="Calibri,Calibri_MSFontService,sans-serif" font-weight="400" font-size="50" transform="matrix(1 0 0 1 1587.34 1250)">MyApi</text><text fill="#FFFFFF" font-family="Calibri,Calibri_MSFontService,sans-serif" font-weight="400" font-size="50" transform="matrix(1 0 0 1 1720.25 1250)">A</text><text fill="#FFFFFF" font-family="Calibri,Calibri_MSFontService,sans-serif" font-weight="400" font-size="50" transform="matrix(1 0 0 1 1565.27 1314)">Controlle</text><text fill="#FFFFFF" font-family="Calibri,Calibri_MSFontService,sans-serif" font-weight="400" font-size="50" transform="matrix(1 0 0 1 1753.76 1314)">r</text><path d="M1876.5 1205.5C1876.5 1159.66 1916.79 1122.5 1966.5 1122.5 2016.21 1122.5 2056.5 1159.66 2056.5 1205.5 2056.5 1251.34 2016.21 1288.5 1966.5 1288.5 1916.79 1288.5 1876.5 1251.34 1876.5 1205.5Z" stroke="#FFC000" stroke-width="4.58333" stroke-miterlimit="8" fill="#BF9000" fill-rule="evenodd"/><text fill="#FFFFFF" font-family="Calibri,Calibri_MSFontService,sans-serif" font-weight="400" font-size="50" transform="matrix(1 0 0 1 1909.16 1223)">Sessn</text><rect x="2204.5" y="1129.5" width="718" height="472" stroke="#5B9BD5" stroke-width="4.58333" stroke-miterlimit="8" fill="#BDD7EE"/><path d="M2224.5 1318C2224.5 1276.3 2331.95 1242.5 2464.5 1242.5 2597.05 1242.5 2704.5 1276.3 2704.5 1318 2704.5 1359.7 2597.05 1393.5 2464.5 1393.5 2331.95 1393.5 2224.5 1359.7 2224.5 1318Z" stroke="#41719C" stroke-width="4.58333" stroke-miterlimit="8" fill="#5B9BD5" fill-rule="evenodd"/><text fill="#FFFFFF" font-family="Calibri,Calibri_MSFontService,sans-serif" font-weight="400" font-size="50" transform="matrix(1 0 0 1 2328.62 1336)">MyProgramA</text><path d="M1213.92 1419.85 1303.62 1419.85 1303.62 1543.9 1302.47 1542.76 1391.02 1542.76 1391.02 1545.05 1301.32 1545.05 1301.32 1421 1302.47 1422.15 1213.92 1422.15ZM1218.5 1434.75 1191 1421 1218.5 1407.25ZM1386.44 1530.15 1413.94 1543.9 1386.44 1557.65Z" fill="#385723"/><path d="M22.9167-1.14583 180.193-1.14583 180.193 150.897 179.047 149.752 335.178 149.752 335.178 152.043 177.902 152.043 177.902 0 179.047 1.14583 22.9167 1.14583ZM27.5 13.75 0 0 27.5-13.75ZM330.595 137.147 358.095 150.897 330.595 164.647Z" fill="#385723" transform="matrix(1 0 0 -1 2922 1392.9)"/><path d="M2079.92 1313.85 2126.58 1313.85 2126.58 1415.77 2125.43 1414.63 2170.95 1414.63 2170.95 1416.92 2124.29 1416.92 2124.29 1315 2125.43 1316.15 2079.92 1316.15ZM2084.5 1328.75 2057 1315 2084.5 1301.25ZM2166.37 1402.02 2193.87 1415.77 2166.37 1429.52Z" fill="#385723"/><path d="M2733.5 1216.5C2733.5 1165.69 2775.81 1124.5 2828 1124.5 2880.19 1124.5 2922.5 1165.69 2922.5 1216.5 2922.5 1267.31 2880.19 1308.5 2828 1308.5 2775.81 1308.5 2733.5 1267.31 2733.5 1216.5Z" stroke="#5B9BD5" stroke-width="4.58333" stroke-miterlimit="8" fill="#2E75B6" fill-rule="evenodd"/><text fill="#FFFFFF" font-family="Calibri,Calibri_MSFontService,sans-serif" font-weight="400" font-size="50" transform="matrix(1 0 0 1 2792.7 1234)">Job</text><path d="M0.375938-1.08241 114.48 38.548 113.728 40.7128-0.375938 1.08241ZM114.286 25.1378 135.753 47.1491 105.264 51.1155Z" fill="#7C7C7C" transform="matrix(-1 0 0 1 2746.75 1219)"/><path d="M1040.5 1925 1097.25 1811.5 1258.75 1811.5 1315.5 1925 1258.75 2038.5 1097.25 2038.5Z" stroke="#172C51" stroke-width="4.58333" stroke-miterlimit="8" fill="#4472C4" fill-rule="evenodd"/><text fill="#FFFFFF" font-family="Calibri,Calibri_MSFontService,sans-serif" font-weight="400" font-size="55" transform="matrix(1 0 0 1 1119.94 1909)">JSON</text><text fill="#FFFFFF" font-family="Calibri,Calibri_MSFontService,sans-serif" font-weight="400" font-size="55" transform="matrix(1 0 0 1 1089.8 1975)">payload</text><path d="M1162.13 1810.27 1162.52 1798.47 1163.67 1786.54 1165.54 1774.82 1168.06 1763.38 1171.18 1752.31 1174.87 1741.7 1179.08 1731.62 1183.77 1722.15 1188.9 1713.39 1194.43 1705.42 1200.36 1698.31 1206.67 1692.16 1213.36 1687.08 1220.44 1683.2 1227.9 1680.71 1234.86 1679.92 1241.09 1679.21 1239.69 1679.52 1245.88 1677.45 1244.76 1677.94 1250.85 1674.6 1249.99 1675.16 1255.94 1670.64 1255.3 1671.19 1261.05 1665.59 1260.57 1666.11 1266.08 1659.5 1265.71 1659.99 1270.92 1652.48 1270.64 1652.93 1275.51 1644.6 1275.28 1645.03 1279.76 1635.98 1279.58 1636.38 1283.62 1626.7 1283.47 1627.09 1287.03 1616.86 1286.9 1617.25 1289.92 1606.57 1289.75 1607.37 1291.52 1596.08 1305.1 1598.21 1303.27 1609.91 1300.08 1621.18 1296.39 1631.8 1292.18 1641.88 1287.5 1651.34 1282.37 1660.1 1276.83 1668.08 1270.9 1675.19 1264.59 1681.33 1257.91 1686.41 1250.82 1690.29 1243.37 1692.79 1236.41 1693.58 1230.17 1694.29 1231.57 1693.98 1225.38 1696.05 1226.51 1695.56 1220.42 1698.9 1221.27 1698.34 1215.32 1702.86 1215.96 1702.31 1210.21 1707.91 1210.69 1707.39 1205.19 1713.99 1205.56 1713.51 1200.34 1721.02 1200.63 1720.57 1195.76 1728.89 1195.98 1728.47 1191.5 1737.52 1191.69 1737.12 1187.64 1746.8 1187.79 1746.41 1184.24 1756.64 1184.36 1756.25 1181.34 1766.93 1181.44 1766.54 1179.01 1777.58 1179.08 1777.18 1177.29 1788.49 1177.34 1788.08 1176.23 1799.57 1176.25 1799.14 1175.87 1810.72ZM1277.03 1601.6 1302.26 1563 1318.01 1606.35Z" fill="#4472C4"/></g></svg>