<svg width="4122" height="1719" xmlns="http://www.w3.org/2000/svg" xmlns:xlink="http://www.w3.org/1999/xlink" xml:space="preserve" overflow="hidden"><g transform="translate(-145 -601)"><path d="M1201 1777C1201 1492.57 1606.63 1262 2107 1262 2607.37 1262 3013 1492.57 3013 1777 3013 2061.43 2607.37 2292 2107 2292 1606.63 2292 1201 2061.43 1201 1777Z" fill="#5B9BD5" fill-rule="evenodd" fill-opacity="0.301961"/><path d="M2215.5 701.5C2215.5 691.007 2224.01 682.5 2234.5 682.5L2855.5 682.5C2865.99 682.5 2874.5 691.007 2874.5 701.5L2874.5 777.5C2874.5 787.993 2865.99 796.5 2855.5 796.5L2234.5 796.5C2224.01 796.5 2215.5 787.993 2215.5 777.5Z" stroke="#41719C" stroke-width="4.58333" stroke-miterlimit="8" fill="#1481CE" fill-rule="evenodd"/><text fill="#FFFFFF" font-family="Calibri,Calibri_MSFontService,sans-serif" font-weight="400" font-size="55" transform="matrix(1 0 0 1 2333.5 757)">SelectRecordFunction</text><path d="M2250.5 738 2262 706.5 2308 706.5C2314.35 706.5 2319.5 720.603 2319.5 738 2319.5 755.397 2314.35 769.5 2308 769.5L2262 769.5Z" stroke="#F2F2F2" stroke-width="4.58333" stroke-miterlimit="8" fill="#00B050" fill-rule="evenodd"/><path d="M647.5 701.5C647.5 691.006 656.007 682.5 666.5 682.5L1413.5 682.5C1423.99 682.5 1432.5 691.006 1432.5 701.5L1432.5 777.5C1432.5 787.993 1423.99 796.5 1413.5 796.5L666.5 796.5C656.007 796.5 647.5 787.993 647.5 777.5Z" stroke="#41719C" stroke-width="4.58333" stroke-miterlimit="8" fill="#1481CE" fill-rule="evenodd"/><text fill="#FFFFFF" font-family="Calibri,Calibri_MSFontService,sans-serif" font-weight="400" font-size="55" transform="matrix(1 0 0 1 778.484 757)">DisplayTransactionFunction</text><path d="M682.5 738 694 706.5 740 706.5C746.351 706.5 751.5 720.603 751.5 738 751.5 755.397 746.351 769.5 740 769.5L694 769.5Z" stroke="#F2F2F2" stroke-width="4.58333" stroke-miterlimit="8" fill="#00B050" fill-rule="evenodd"/><path d="M1468.5 701.5C1468.5 691.006 1477.01 682.5 1487.5 682.5L2159.5 682.5C2169.99 682.5 2178.5 691.006 2178.5 701.5L2178.5 777.5C2178.5 787.993 2169.99 796.5 2159.5 796.5L1487.5 796.5C1477.01 796.5 1468.5 787.993 1468.5 777.5Z" stroke="#41719C" stroke-width="4.58333" stroke-miterlimit="8" fill="#1481CE" fill-rule="evenodd"/><text fill="#FFFFFF" font-family="Calibri,Calibri_MSFontService,sans-serif" font-weight="400" font-size="55" transform="matrix(1 0 0 1 1585.6 757)">EditTransactionFunction</text><path d="M1502.5 738 1514.17 706.5 1560.83 706.5C1567.28 706.5 1572.5 720.603 1572.5 738 1572.5 755.397 1567.28 769.5 1560.83 769.5L1514.17 769.5Z" stroke="#F2F2F2" stroke-width="4.58333" stroke-miterlimit="8" fill="#00B050" fill-rule="evenodd"/><path d="M2930.5 701.5C2930.5 691.007 2939.01 682.5 2949.5 682.5L3521.5 682.5C3531.99 682.5 3540.5 691.007 3540.5 701.5L3540.5 777.5C3540.5 787.993 3531.99 796.5 3521.5 796.5L2949.5 796.5C2939.01 796.5 2930.5 787.993 2930.5 777.5Z" stroke="#41719C" stroke-width="4.58333" stroke-miterlimit="8" fill="#1481CE" fill-rule="evenodd"/><text fill="#FFFFFF" font-family="Calibri,Calibri_MSFontService,sans-serif" font-weight="400" font-size="55" transform="matrix(1 0 0 1 3056.79 757)">DisplayFileFunction</text><path d="M2965.5 738 2977 706.5 3023 706.5C3029.35 706.5 3034.5 720.603 3034.5 738 3034.5 755.397 3029.35 769.5 3023 769.5L2977 769.5Z" stroke="#F2F2F2" stroke-width="4.58333" stroke-miterlimit="8" fill="#00B050" fill-rule="evenodd"/><path d="M3575.5 701.5C3575.5 691.007 3584.01 682.5 3594.5 682.5L4167.5 682.5C4177.99 682.5 4186.5 691.007 4186.5 701.5L4186.5 777.5C4186.5 787.993 4177.99 796.5 4167.5 796.5L3594.5 796.5C3584.01 796.5 3575.5 787.993 3575.5 777.5Z" stroke="#41719C" stroke-width="4.58333" stroke-miterlimit="8" fill="#1481CE" fill-rule="evenodd"/><text fill="#FFFFFF" font-family="Calibri,Calibri_MSFontService,sans-serif" font-weight="400" font-size="55" transform="matrix(1 0 0 1 3739.51 757)">EditFileFunction</text><path d="M3610.5 738 3622.17 706.5 3668.83 706.5C3675.28 706.5 3680.5 720.603 3680.5 738 3680.5 755.397 3675.28 769.5 3668.83 769.5L3622.17 769.5Z" stroke="#F2F2F2" stroke-width="4.58333" stroke-miterlimit="8" fill="#00B050" fill-rule="evenodd"/><path d="M232.5 1133.33C232.5 1122.93 240.932 1114.5 251.333 1114.5L882.667 1114.5C893.068 1114.5 901.5 1122.93 901.5 1133.33L901.5 1208.67C901.5 1219.07 893.068 1227.5 882.667 1227.5L251.333 1227.5C240.932 1227.5 232.5 1219.07 232.5 1208.67Z" stroke="#41719C" stroke-width="4.58333" stroke-miterlimit="8" fill="#1481CE" fill-rule="evenodd"/><text fill="#FFFFFF" font-family="Calibri,Calibri_MSFontService,sans-serif" font-weight="400" font-size="55" transform="matrix(1 0 0 1 349.729 1189)">DisplayRecordFunction</text><path d="M267.5 1170 279.167 1138.5 325.833 1138.5C332.277 1138.5 337.5 1152.6 337.5 1170 337.5 1187.4 332.277 1201.5 325.833 1201.5L279.167 1201.5Z" stroke="#F2F2F2" stroke-width="4.58333" stroke-miterlimit="8" fill="#00B050" fill-rule="evenodd"/><path d="M3346.5 1134.33C3346.5 1123.93 3354.93 1115.5 3365.33 1115.5L4035.67 1115.5C4046.07 1115.5 4054.5 1123.93 4054.5 1134.33L4054.5 1209.67C4054.5 1220.07 4046.07 1228.5 4035.67 1228.5L3365.33 1228.5C3354.93 1228.5 3346.5 1220.07 3346.5 1209.67Z" stroke="#41719C" stroke-width="4.58333" stroke-miterlimit="8" fill="#1481CE" fill-rule="evenodd"/><text fill="#FFFFFF" font-family="Calibri,Calibri_MSFontService,sans-serif" font-weight="400" font-size="55" transform="matrix(1 0 0 1 3479.17 1189)">PromptRecordFunction</text><path d="M3381.5 1170.5 3393 1138.5 3439 1138.5C3445.35 1138.5 3450.5 1152.83 3450.5 1170.5 3450.5 1188.17 3445.35 1202.5 3439 1202.5L3393 1202.5Z" stroke="#F2F2F2" stroke-width="4.58333" stroke-miterlimit="8" fill="#00B050" fill-rule="evenodd"/><path d="M1391.5 1520.33C1391.5 1509.93 1399.93 1501.5 1410.33 1501.5L2013.67 1501.5C2024.07 1501.5 2032.5 1509.93 2032.5 1520.33L2032.5 1595.67C2032.5 1606.07 2024.07 1614.5 2013.67 1614.5L1410.33 1614.5C1399.93 1614.5 1391.5 1606.07 1391.5 1595.67Z" stroke="#41719C" stroke-width="4.58333" stroke-miterlimit="8" fill="#1481CE" fill-rule="evenodd"/><text fill="#FFFFFF" font-family="Calibri,Calibri_MSFontService,sans-serif" font-weight="400" font-size="55" transform="matrix(1 0 0 1 1510.57 1576)">SingleRecordProgram</text><path d="M1422.5 1567.02 1432.97 1554.54 1429.23 1538.98 1446.03 1538.98 1456.5 1526.5 1466.97 1538.98 1483.77 1538.98 1480.03 1554.54 1490.5 1567.02 1475.37 1573.94 1471.63 1589.5 1456.5 1582.58 1441.37 1589.5 1437.63 1573.94Z" stroke="#F2F2F2" stroke-width="4.58333" stroke-miterlimit="8" fill="#ED7D31" fill-rule="evenodd"/><path d="M2163.5 1508.33C2163.5 1497.93 2171.93 1489.5 2182.33 1489.5L2733.67 1489.5C2744.07 1489.5 2752.5 1497.93 2752.5 1508.33L2752.5 1583.67C2752.5 1594.07 2744.07 1602.5 2733.67 1602.5L2182.33 1602.5C2171.93 1602.5 2163.5 1594.07 2163.5 1583.67Z" stroke="#41719C" stroke-width="4.58333" stroke-miterlimit="8" fill="#1481CE" fill-rule="evenodd"/><text fill="#FFFFFF" font-family="Calibri,Calibri_MSFontService,sans-serif" font-weight="400" font-size="55" transform="matrix(1 0 0 1 2324.47 1563)">SubfileProgram</text><path d="M2194.5 1555.02 2204.97 1542.54 2201.23 1526.98 2218.03 1526.98 2228.5 1514.5 2238.97 1526.98 2255.77 1526.98 2252.03 1542.54 2262.5 1555.02 2247.37 1561.94 2243.63 1577.5 2228.5 1570.58 2213.37 1577.5 2209.63 1561.94Z" stroke="#F2F2F2" stroke-width="4.58333" stroke-miterlimit="8" fill="#ED7D31" fill-rule="evenodd"/><path d="M1848.5 2107.33C1848.5 2096.93 1856.93 2088.5 1867.33 2088.5L2397.67 2088.5C2408.07 2088.5 2416.5 2096.93 2416.5 2107.33L2416.5 2182.67C2416.5 2193.07 2408.07 2201.5 2397.67 2201.5L1867.33 2201.5C1856.93 2201.5 1848.5 2193.07 1848.5 2182.67Z" stroke="#41719C" stroke-width="4.58333" stroke-miterlimit="8" fill="#1481CE" fill-rule="evenodd"/><text fill="#FFFFFF" font-family="Calibri,Calibri_MSFontService,sans-serif" font-weight="400" font-size="55" transform="matrix(1 0 0 1 1959.85 2162)">Escape</text><text fill="#FFFFFF" font-family="Calibri,Calibri_MSFontService,sans-serif" font-weight="400" font-size="55" transform="matrix(1 0 0 1 2114.08 2162)">Program</text><path d="M1888.5 2150.02 1898.97 2137.54 1895.23 2121.98 1912.03 2121.98 1922.5 2109.5 1932.97 2121.98 1949.77 2121.98 1946.03 2137.54 1956.5 2150.02 1941.37 2156.94 1937.63 2172.5 1922.5 2165.58 1907.37 2172.5 1903.63 2156.94Z" stroke="#F2F2F2" stroke-width="4.58333" stroke-miterlimit="8" fill="#ED7D31" fill-rule="evenodd"/><path d="M1833.5 1883.33C1833.5 1872.93 1841.93 1864.5 1852.33 1864.5L2412.67 1864.5C2423.07 1864.5 2431.5 1872.93 2431.5 1883.33L2431.5 1958.67C2431.5 1969.07 2423.07 1977.5 2412.67 1977.5L1852.33 1977.5C1841.93 1977.5 1833.5 1969.07 1833.5 1958.67Z" stroke="#41719C" stroke-width="4.58333" stroke-miterlimit="8" fill="#1481CE" fill-rule="evenodd"/><text fill="#FFFFFF" font-family="Calibri,Calibri_MSFontService,sans-serif" font-weight="400" font-size="55" transform="matrix(1 0 0 1 1956.12 1939)">InteractiveProgram</text><path d="M1864.5 1930.02 1874.97 1917.54 1871.23 1901.98 1888.03 1901.98 1898.5 1889.5 1908.97 1901.98 1925.77 1901.98 1922.03 1917.54 1932.5 1930.02 1917.37 1936.94 1913.63 1952.5 1898.5 1945.58 1883.37 1952.5 1879.63 1936.94Z" stroke="#F2F2F2" stroke-width="4.58333" stroke-miterlimit="8" fill="#ED7D31" fill-rule="evenodd"/><path d="M3262.5 1748.5C3262.5 1738.01 3271.01 1729.5 3281.5 1729.5L3842.5 1729.5C3852.99 1729.5 3861.5 1738.01 3861.5 1748.5L3861.5 1824.5C3861.5 1834.99 3852.99 1843.5 3842.5 1843.5L3281.5 1843.5C3271.01 1843.5 3262.5 1834.99 3262.5 1824.5Z" stroke="#41719C" stroke-width="4.58333" stroke-miterlimit="8" fill="#1481CE" fill-rule="evenodd"/><text fill="#FFFFFF" font-family="Calibri,Calibri_MSFontService,sans-serif" font-weight="400" font-size="55" transform="matrix(1 0 0 1 3410.5 1804)">ExternalFunction</text><path d="M3299.5 1767.5 3340.5 1767.5 3340.5 1750.5 3374.5 1784.5 3340.5 1818.5 3340.5 1801.5 3299.5 1801.5 3316.5 1784.5Z" stroke="#BC8C00" stroke-width="4.58333" stroke-miterlimit="8" fill="#FFC000" fill-rule="evenodd"/><path d="M504.5 1748.5C504.5 1738.01 513.007 1729.5 523.5 1729.5L1005.5 1729.5C1015.99 1729.5 1024.5 1738.01 1024.5 1748.5L1024.5 1824.5C1024.5 1834.99 1015.99 1843.5 1005.5 1843.5L523.5 1843.5C513.007 1843.5 504.5 1834.99 504.5 1824.5Z" stroke="#41719C" stroke-width="4.58333" stroke-miterlimit="8" fill="#1481CE" fill-rule="evenodd"/><text fill="#FFFFFF" font-family="Calibri,Calibri_MSFontService,sans-serif" font-weight="400" font-size="55" transform="matrix(1 0 0 1 651.041 1804)">PrintFunction</text><path d="M540.5 1758.5 603.5 1758.5 603.5 1809.02C572 1809.02 572 1828.27 540.5 1817.34Z" stroke="#000000" stroke-width="4.58333" stroke-miterlimit="8" fill="#767171" fill-rule="evenodd"/><path d="M2137.16 1977 2137.16 2061.48 2126.84 2061.48 2126.84 1977ZM2147.47 2056.33 2132 2087.27 2116.53 2056.33Z" fill="#ED7D31"/><path d="M3.2299-4.01928 308.516 241.309 302.057 249.348-3.2299 4.01928ZM310.957 230.041 325.383 261.478 291.577 254.157Z" fill="#ED7D31" transform="matrix(-1 0 0 1 2457.38 1602)"/><path d="M1714.63 1609.57 2112.8 1845.73 2107.54 1854.6 1709.37 1618.43ZM2113.62 1834.23 2132.34 1863.32 2097.84 1860.84Z" fill="#ED7D31"/><path d="M2.01063-4.74808 824.973 343.745 820.952 353.241-2.01063 4.74808ZM824.246 332.238 846.703 358.546 812.183 360.726Z" fill="#ED7D31" transform="matrix(-1 0 0 1 3262.7 1786)"/><path d="M1026.06 1781.27 1826.86 2129.54 1822.75 2138.99 1021.94 1790.73ZM1826.25 2118.02 1848.45 2144.55 1813.91 2146.39Z" fill="#ED7D31"/><path d="M1278.74 1222.63 1692.66 1482.21 1687.18 1490.94 1273.26 1231.37ZM1693.77 1470.73 1711.76 1500.27 1677.33 1496.94Z" fill="#ED7D31"/><path d="M568.197 1221.98 1688 1489.27 1685.61 1499.3 565.803 1232.02ZM1685.38 1478.04 1711.88 1500.27 1678.2 1508.14Z" fill="#ED7D31"/><path d="M1.93699-4.7786 1545.93 621.075 1542.06 630.632-1.93699 4.7786ZM1545.02 609.581 1567.89 635.538 1533.4 638.252Z" fill="#ED7D31" transform="matrix(-1 0 0 1 3699.89 1228)"/><path d="M2.25644-4.63631 1402.68 676.936 1398.17 686.209-2.25644 4.63631ZM1402.56 665.408 1423.61 692.856 1389.02 693.226Z" fill="#ED7D31" transform="matrix(-1 0 0 1 3880.61 796)"/><path d="M3.4299-3.85003 761.904 671.856 755.044 679.556-3.4299 3.85003ZM764.914 660.727 777.724 692.856 744.334 683.827Z" fill="#ED7D31" transform="matrix(-1 0 0 1 3234.72 796)"/><path d="M5.11599-0.643056 88.9895 666.633 78.7575 667.919-5.11599 0.643056ZM98.5784 660.231 87.0887 692.856 67.8824 664.089Z" fill="#ED7D31" transform="matrix(-1 0 0 1 2544.09 796)"/><path d="M1826.8 792.517 2443.99 1466.36 2436.39 1473.33 1819.2 799.483ZM2448.12 1455.59 2457.61 1488.86 2425.3 1476.49Z" fill="#ED7D31"/><path d="M1042.26 791.368 2436.58 1472.9 2432.05 1482.16 1037.74 800.633ZM2436.48 1461.37 2457.48 1488.86 2422.9 1489.17Z" fill="#ED7D31"/><rect x="152" y="608" width="4108" height="1705" stroke="#ED7D31" stroke-width="13.75" stroke-miterlimit="8" fill="none"/><path d="M958.5 1133.33C958.5 1122.93 966.932 1114.5 977.334 1114.5L1575.67 1114.5C1586.07 1114.5 1594.5 1122.93 1594.5 1133.33L1594.5 1208.67C1594.5 1219.07 1586.07 1227.5 1575.67 1227.5L977.334 1227.5C966.932 1227.5 958.5 1219.07 958.5 1208.67Z" stroke="#41719C" stroke-width="4.58333" stroke-miterlimit="8" fill="#1481CE" fill-rule="evenodd"/><text fill="#FFFFFF" font-family="Calibri,Calibri_MSFontService,sans-serif" font-weight="400" font-size="55" transform="matrix(1 0 0 1 1095.69 1189)">EditRecordFunction</text><path d="M992.5 1170 1004.17 1138.5 1050.83 1138.5C1057.28 1138.5 1062.5 1152.6 1062.5 1170 1062.5 1187.4 1057.28 1201.5 1050.83 1201.5L1004.17 1201.5Z" stroke="#F2F2F2" stroke-width="4.58333" stroke-miterlimit="8" fill="#00B050" fill-rule="evenodd"/><rect x="264.5" y="2172.5" width="586" height="80" stroke="#41719C" stroke-width="4.58333" stroke-miterlimit="8" fill="#1481CE"/><text fill="#FFFFFF" font-family="Calibri,Calibri_MSFontService,sans-serif" font-weight="400" font-size="55" transform="matrix(1 0 0 1 374.95 2230)">EscapeEnvironment</text><path d="M288.5 2213C288.5 2197.81 300.364 2185.5 315 2185.5 329.635 2185.5 341.5 2197.81 341.5 2213 341.5 2228.19 329.635 2240.5 315 2240.5 300.364 2240.5 288.5 2228.19 288.5 2213ZM301.75 2213C301.75 2220.87 307.682 2227.25 315 2227.25 322.318 2227.25 328.25 2220.87 328.25 2213 328.25 2205.13 322.318 2198.75 315 2198.75 307.682 2198.75 301.75 2205.13 301.75 2213Z" stroke="#2F528F" stroke-width="4.58333" stroke-miterlimit="8" fill="#FFFFFF" fill-rule="evenodd"/></g></svg>