<svg width="3592" height="1712" xmlns="http://www.w3.org/2000/svg" xmlns:xlink="http://www.w3.org/1999/xlink" xml:space="preserve" overflow="hidden"><defs><linearGradient x1="3582.5" y1="1857" x2="3747.5" y2="1857" gradientUnits="userSpaceOnUse" spreadMethod="reflect" id="fill0"><stop offset="0" stop-color="#99FF99"/><stop offset="0.0131579" stop-color="#98FE98"/><stop offset="0.0263158" stop-color="#98FE98"/><stop offset="0.0394737" stop-color="#98FE98"/><stop offset="0.0526316" stop-color="#98FE98"/><stop offset="0.0657895" stop-color="#98FE98"/><stop offset="0.0789474" stop-color="#98FE98"/><stop offset="0.0921053" stop-color="#98FE98"/><stop offset="0.105263" stop-color="#98FD98"/><stop offset="0.118421" stop-color="#98FD98"/><stop offset="0.131579" stop-color="#97FD97"/><stop offset="0.144737" stop-color="#97FC97"/><stop offset="0.157895" stop-color="#97FC97"/><stop offset="0.171053" stop-color="#97FC97"/><stop offset="0.184211" stop-color="#97FB97"/><stop offset="0.197368" stop-color="#96FB96"/><stop offset="0.210526" stop-color="#96FA96"/><stop offset="0.223684" stop-color="#96FA96"/><stop offset="0.236842" stop-color="#95F995"/><stop offset="0.25" stop-color="#95F995"/><stop offset="0.263158" stop-color="#95F895"/><stop offset="0.276316" stop-color="#94F894"/><stop offset="0.289474" stop-color="#94F794"/><stop offset="0.302632" stop-color="#94F694"/><stop offset="0.315789" stop-color="#93F693"/><stop offset="0.328947" stop-color="#93F593"/><stop offset="0.342105" stop-color="#92F492"/><stop offset="0.355263" stop-color="#92F392"/><stop offset="0.368421" stop-color="#91F391"/><stop offset="0.381579" stop-color="#91F291"/><stop offset="0.394737" stop-color="#90F190"/><stop offset="0.407895" stop-color="#90F090"/><stop offset="0.421053" stop-color="#8FEF8F"/><stop offset="0.434211" stop-color="#8FEE8F"/><stop offset="0.447368" stop-color="#8EED8E"/><stop offset="0.460526" stop-color="#8EED8E"/><stop offset="0.473684" stop-color="#8DEC8D"/><stop offset="0.486842" stop-color="#8DEB8D"/><stop offset="0.5" stop-color="#8CEA8C"/><stop offset="0.513158" stop-color="#8BE88B"/><stop offset="0.526316" stop-color="#8BE78B"/><stop offset="0.539474" stop-color="#8AE68A"/><stop offset="0.552632" stop-color="#89E589"/><stop offset="0.565789" stop-color="#89E489"/><stop offset="0.578947" stop-color="#88E388"/><stop offset="0.592105" stop-color="#87E287"/><stop offset="0.605263" stop-color="#87E087"/><stop offset="0.618421" stop-color="#86DF86"/><stop offset="0.631579" stop-color="#85DE85"/><stop offset="0.644737" stop-color="#84DD84"/><stop offset="0.657895" stop-color="#84DB84"/><stop offset="0.671053" stop-color="#83DA83"/><stop offset="0.684211" stop-color="#82D982"/><stop offset="0.697368" stop-color="#81D781"/><stop offset="0.710526" stop-color="#80D680"/><stop offset="0.723684" stop-color="#7FD57F"/><stop offset="0.736842" stop-color="#7FD37F"/><stop offset="0.75" stop-color="#7ED27E"/><stop offset="0.763158" stop-color="#7DD07D"/><stop offset="0.776316" stop-color="#7CCF7C"/><stop offset="0.789474" stop-color="#7BCD7B"/><stop offset="0.802632" stop-color="#7ACC7A"/><stop offset="0.815789" stop-color="#79CA79"/><stop offset="0.828947" stop-color="#78C878"/><stop offset="0.842105" stop-color="#77C777"/><stop offset="0.855263" stop-color="#76C576"/><stop offset="0.868421" stop-color="#75C375"/><stop offset="0.881579" stop-color="#74C274"/><stop offset="0.894737" stop-color="#73C073"/><stop offset="0.907895" stop-color="#72BE72"/><stop offset="0.921053" stop-color="#71BD71"/><stop offset="0.934211" stop-color="#70BB70"/><stop offset="0.947368" stop-color="#6FB96F"/><stop offset="0.960526" stop-color="#6EB76E"/><stop offset="0.973684" stop-color="#6DB56D"/><stop offset="0.986842" stop-color="#6CB36C"/><stop offset="1" stop-color="#6BB26B"/></linearGradient><linearGradient x1="3692.5" y1="1967" x2="3857.5" y2="1967" gradientUnits="userSpaceOnUse" spreadMethod="reflect" id="fill1"><stop offset="0" stop-color="#99FF99"/><stop offset="0.0131579" stop-color="#98FE98"/><stop offset="0.0263158" stop-color="#98FE98"/><stop offset="0.0394737" stop-color="#98FE98"/><stop offset="0.0526316" stop-color="#98FE98"/><stop offset="0.0657895" stop-color="#98FE98"/><stop offset="0.0789474" stop-color="#98FE98"/><stop offset="0.0921053" stop-color="#98FE98"/><stop offset="0.105263" stop-color="#98FD98"/><stop offset="0.118421" stop-color="#98FD98"/><stop offset="0.131579" stop-color="#97FD97"/><stop offset="0.144737" stop-color="#97FC97"/><stop offset="0.157895" stop-color="#97FC97"/><stop offset="0.171053" stop-color="#97FC97"/><stop offset="0.184211" stop-color="#97FB97"/><stop offset="0.197368" stop-color="#96FB96"/><stop offset="0.210526" stop-color="#96FA96"/><stop offset="0.223684" stop-color="#96FA96"/><stop offset="0.236842" stop-color="#95F995"/><stop offset="0.25" stop-color="#95F995"/><stop offset="0.263158" stop-color="#95F895"/><stop offset="0.276316" stop-color="#94F894"/><stop offset="0.289474" stop-color="#94F794"/><stop offset="0.302632" stop-color="#94F694"/><stop offset="0.315789" stop-color="#93F693"/><stop offset="0.328947" stop-color="#93F593"/><stop offset="0.342105" stop-color="#92F492"/><stop offset="0.355263" stop-color="#92F392"/><stop offset="0.368421" stop-color="#91F391"/><stop offset="0.381579" stop-color="#91F291"/><stop offset="0.394737" stop-color="#90F190"/><stop offset="0.407895" stop-color="#90F090"/><stop offset="0.421053" stop-color="#8FEF8F"/><stop offset="0.434211" stop-color="#8FEE8F"/><stop offset="0.447368" stop-color="#8EED8E"/><stop offset="0.460526" stop-color="#8EED8E"/><stop offset="0.473684" stop-color="#8DEC8D"/><stop offset="0.486842" stop-color="#8DEB8D"/><stop offset="0.5" stop-color="#8CEA8C"/><stop offset="0.513158" stop-color="#8BE88B"/><stop offset="0.526316" stop-color="#8BE78B"/><stop offset="0.539474" stop-color="#8AE68A"/><stop offset="0.552632" stop-color="#89E589"/><stop offset="0.565789" stop-color="#89E489"/><stop offset="0.578947" stop-color="#88E388"/><stop offset="0.592105" stop-color="#87E287"/><stop offset="0.605263" stop-color="#87E087"/><stop offset="0.618421" stop-color="#86DF86"/><stop offset="0.631579" stop-color="#85DE85"/><stop offset="0.644737" stop-color="#84DD84"/><stop offset="0.657895" stop-color="#84DB84"/><stop offset="0.671053" stop-color="#83DA83"/><stop offset="0.684211" stop-color="#82D982"/><stop offset="0.697368" stop-color="#81D781"/><stop offset="0.710526" stop-color="#80D680"/><stop offset="0.723684" stop-color="#7FD57F"/><stop offset="0.736842" stop-color="#7FD37F"/><stop offset="0.75" stop-color="#7ED27E"/><stop offset="0.763158" stop-color="#7DD07D"/><stop offset="0.776316" stop-color="#7CCF7C"/><stop offset="0.789474" stop-color="#7BCD7B"/><stop offset="0.802632" stop-color="#7ACC7A"/><stop offset="0.815789" stop-color="#79CA79"/><stop offset="0.828947" stop-color="#78C878"/><stop offset="0.842105" stop-color="#77C777"/><stop offset="0.855263" stop-color="#76C576"/><stop offset="0.868421" stop-color="#75C375"/><stop offset="0.881579" stop-color="#74C274"/><stop offset="0.894737" stop-color="#73C073"/><stop offset="0.907895" stop-color="#72BE72"/><stop offset="0.921053" stop-color="#71BD71"/><stop offset="0.934211" stop-color="#70BB70"/><stop offset="0.947368" stop-color="#6FB96F"/><stop offset="0.960526" stop-color="#6EB76E"/><stop offset="0.973684" stop-color="#6DB56D"/><stop offset="0.986842" stop-color="#6CB36C"/><stop offset="1" stop-color="#6BB26B"/></linearGradient><linearGradient x1="3610.5" y1="784.5" x2="3775.5" y2="784.5" gradientUnits="userSpaceOnUse" spreadMethod="reflect" id="fill2"><stop offset="0" stop-color="#99FF99"/><stop offset="0.0131579" stop-color="#98FE98"/><stop offset="0.0263158" stop-color="#98FE98"/><stop offset="0.0394737" stop-color="#98FE98"/><stop offset="0.0526316" stop-color="#98FE98"/><stop offset="0.0657895" stop-color="#98FE98"/><stop offset="0.0789474" stop-color="#98FE98"/><stop offset="0.0921053" stop-color="#98FE98"/><stop offset="0.105263" stop-color="#98FD98"/><stop offset="0.118421" stop-color="#98FD98"/><stop offset="0.131579" stop-color="#97FD97"/><stop offset="0.144737" stop-color="#97FC97"/><stop offset="0.157895" stop-color="#97FC97"/><stop offset="0.171053" stop-color="#97FC97"/><stop offset="0.184211" stop-color="#97FB97"/><stop offset="0.197368" stop-color="#96FB96"/><stop offset="0.210526" stop-color="#96FA96"/><stop offset="0.223684" stop-color="#96FA96"/><stop offset="0.236842" stop-color="#95F995"/><stop offset="0.25" stop-color="#95F995"/><stop offset="0.263158" stop-color="#95F895"/><stop offset="0.276316" stop-color="#94F894"/><stop offset="0.289474" stop-color="#94F794"/><stop offset="0.302632" stop-color="#94F694"/><stop offset="0.315789" stop-color="#93F693"/><stop offset="0.328947" stop-color="#93F593"/><stop offset="0.342105" stop-color="#92F492"/><stop offset="0.355263" stop-color="#92F392"/><stop offset="0.368421" stop-color="#91F391"/><stop offset="0.381579" stop-color="#91F291"/><stop offset="0.394737" stop-color="#90F190"/><stop offset="0.407895" stop-color="#90F090"/><stop offset="0.421053" stop-color="#8FEF8F"/><stop offset="0.434211" stop-color="#8FEE8F"/><stop offset="0.447368" stop-color="#8EED8E"/><stop offset="0.460526" stop-color="#8EED8E"/><stop offset="0.473684" stop-color="#8DEC8D"/><stop offset="0.486842" stop-color="#8DEB8D"/><stop offset="0.5" stop-color="#8CEA8C"/><stop offset="0.513158" stop-color="#8BE88B"/><stop offset="0.526316" stop-color="#8BE78B"/><stop offset="0.539474" stop-color="#8AE68A"/><stop offset="0.552632" stop-color="#89E589"/><stop offset="0.565789" stop-color="#89E489"/><stop offset="0.578947" stop-color="#88E388"/><stop offset="0.592105" stop-color="#87E287"/><stop offset="0.605263" stop-color="#87E087"/><stop offset="0.618421" stop-color="#86DF86"/><stop offset="0.631579" stop-color="#85DE85"/><stop offset="0.644737" stop-color="#84DD84"/><stop offset="0.657895" stop-color="#84DB84"/><stop offset="0.671053" stop-color="#83DA83"/><stop offset="0.684211" stop-color="#82D982"/><stop offset="0.697368" stop-color="#81D781"/><stop offset="0.710526" stop-color="#80D680"/><stop offset="0.723684" stop-color="#7FD57F"/><stop offset="0.736842" stop-color="#7FD37F"/><stop offset="0.75" stop-color="#7ED27E"/><stop offset="0.763158" stop-color="#7DD07D"/><stop offset="0.776316" stop-color="#7CCF7C"/><stop offset="0.789474" stop-color="#7BCD7B"/><stop offset="0.802632" stop-color="#7ACC7A"/><stop offset="0.815789" stop-color="#79CA79"/><stop offset="0.828947" stop-color="#78C878"/><stop offset="0.842105" stop-color="#77C777"/><stop offset="0.855263" stop-color="#76C576"/><stop offset="0.868421" stop-color="#75C375"/><stop offset="0.881579" stop-color="#74C274"/><stop offset="0.894737" stop-color="#73C073"/><stop offset="0.907895" stop-color="#72BE72"/><stop offset="0.921053" stop-color="#71BD71"/><stop offset="0.934211" stop-color="#70BB70"/><stop offset="0.947368" stop-color="#6FB96F"/><stop offset="0.960526" stop-color="#6EB76E"/><stop offset="0.973684" stop-color="#6DB56D"/><stop offset="0.986842" stop-color="#6CB36C"/><stop offset="1" stop-color="#6BB26B"/></linearGradient><linearGradient x1="3720.5" y1="922" x2="3885.5" y2="922" gradientUnits="userSpaceOnUse" spreadMethod="reflect" id="fill3"><stop offset="0" stop-color="#99FF99"/><stop offset="0.0131579" stop-color="#98FE98"/><stop offset="0.0263158" stop-color="#98FE98"/><stop offset="0.0394737" stop-color="#98FE98"/><stop offset="0.0526316" stop-color="#98FE98"/><stop offset="0.0657895" stop-color="#98FE98"/><stop offset="0.0789474" stop-color="#98FE98"/><stop offset="0.0921053" stop-color="#98FE98"/><stop offset="0.105263" stop-color="#98FD98"/><stop offset="0.118421" stop-color="#98FD98"/><stop offset="0.131579" stop-color="#97FD97"/><stop offset="0.144737" stop-color="#97FC97"/><stop offset="0.157895" stop-color="#97FC97"/><stop offset="0.171053" stop-color="#97FC97"/><stop offset="0.184211" stop-color="#97FB97"/><stop offset="0.197368" stop-color="#96FB96"/><stop offset="0.210526" stop-color="#96FA96"/><stop offset="0.223684" stop-color="#96FA96"/><stop offset="0.236842" stop-color="#95F995"/><stop offset="0.25" stop-color="#95F995"/><stop offset="0.263158" stop-color="#95F895"/><stop offset="0.276316" stop-color="#94F894"/><stop offset="0.289474" stop-color="#94F794"/><stop offset="0.302632" stop-color="#94F694"/><stop offset="0.315789" stop-color="#93F693"/><stop offset="0.328947" stop-color="#93F593"/><stop offset="0.342105" stop-color="#92F492"/><stop offset="0.355263" stop-color="#92F392"/><stop offset="0.368421" stop-color="#91F391"/><stop offset="0.381579" stop-color="#91F291"/><stop offset="0.394737" stop-color="#90F190"/><stop offset="0.407895" stop-color="#90F090"/><stop offset="0.421053" stop-color="#8FEF8F"/><stop offset="0.434211" stop-color="#8FEE8F"/><stop offset="0.447368" stop-color="#8EED8E"/><stop offset="0.460526" stop-color="#8EED8E"/><stop offset="0.473684" stop-color="#8DEC8D"/><stop offset="0.486842" stop-color="#8DEB8D"/><stop offset="0.5" stop-color="#8CEA8C"/><stop offset="0.513158" stop-color="#8BE88B"/><stop offset="0.526316" stop-color="#8BE78B"/><stop offset="0.539474" stop-color="#8AE68A"/><stop offset="0.552632" stop-color="#89E589"/><stop offset="0.565789" stop-color="#89E489"/><stop offset="0.578947" stop-color="#88E388"/><stop offset="0.592105" stop-color="#87E287"/><stop offset="0.605263" stop-color="#87E087"/><stop offset="0.618421" stop-color="#86DF86"/><stop offset="0.631579" stop-color="#85DE85"/><stop offset="0.644737" stop-color="#84DD84"/><stop offset="0.657895" stop-color="#84DB84"/><stop offset="0.671053" stop-color="#83DA83"/><stop offset="0.684211" stop-color="#82D982"/><stop offset="0.697368" stop-color="#81D781"/><stop offset="0.710526" stop-color="#80D680"/><stop offset="0.723684" stop-color="#7FD57F"/><stop offset="0.736842" stop-color="#7FD37F"/><stop offset="0.75" stop-color="#7ED27E"/><stop offset="0.763158" stop-color="#7DD07D"/><stop offset="0.776316" stop-color="#7CCF7C"/><stop offset="0.789474" stop-color="#7BCD7B"/><stop offset="0.802632" stop-color="#7ACC7A"/><stop offset="0.815789" stop-color="#79CA79"/><stop offset="0.828947" stop-color="#78C878"/><stop offset="0.842105" stop-color="#77C777"/><stop offset="0.855263" stop-color="#76C576"/><stop offset="0.868421" stop-color="#75C375"/><stop offset="0.881579" stop-color="#74C274"/><stop offset="0.894737" stop-color="#73C073"/><stop offset="0.907895" stop-color="#72BE72"/><stop offset="0.921053" stop-color="#71BD71"/><stop offset="0.934211" stop-color="#70BB70"/><stop offset="0.947368" stop-color="#6FB96F"/><stop offset="0.960526" stop-color="#6EB76E"/><stop offset="0.973684" stop-color="#6DB56D"/><stop offset="0.986842" stop-color="#6CB36C"/><stop offset="1" stop-color="#6BB26B"/></linearGradient><linearGradient x1="2812.5" y1="1905" x2="2991.5" y2="1905" gradientUnits="userSpaceOnUse" spreadMethod="reflect" id="fill4"><stop offset="0" stop-color="#99FF99"/><stop offset="0.0131579" stop-color="#98FE98"/><stop offset="0.0263158" stop-color="#98FE98"/><stop offset="0.0394737" stop-color="#98FE98"/><stop offset="0.0526316" stop-color="#98FE98"/><stop offset="0.0657895" stop-color="#98FE98"/><stop offset="0.0789474" stop-color="#98FE98"/><stop offset="0.0921053" stop-color="#98FE98"/><stop offset="0.105263" stop-color="#98FD98"/><stop offset="0.118421" stop-color="#98FD98"/><stop offset="0.131579" stop-color="#97FD97"/><stop offset="0.144737" stop-color="#97FC97"/><stop offset="0.157895" stop-color="#97FC97"/><stop offset="0.171053" stop-color="#97FC97"/><stop offset="0.184211" stop-color="#97FB97"/><stop offset="0.197368" stop-color="#96FB96"/><stop offset="0.210526" stop-color="#96FA96"/><stop offset="0.223684" stop-color="#96FA96"/><stop offset="0.236842" stop-color="#95F995"/><stop offset="0.25" stop-color="#95F995"/><stop offset="0.263158" stop-color="#95F895"/><stop offset="0.276316" stop-color="#94F894"/><stop offset="0.289474" stop-color="#94F794"/><stop offset="0.302632" stop-color="#94F694"/><stop offset="0.315789" stop-color="#93F693"/><stop offset="0.328947" stop-color="#93F593"/><stop offset="0.342105" stop-color="#92F492"/><stop offset="0.355263" stop-color="#92F392"/><stop offset="0.368421" stop-color="#91F391"/><stop offset="0.381579" stop-color="#91F291"/><stop offset="0.394737" stop-color="#90F190"/><stop offset="0.407895" stop-color="#90F090"/><stop offset="0.421053" stop-color="#8FEF8F"/><stop offset="0.434211" stop-color="#8FEE8F"/><stop offset="0.447368" stop-color="#8EED8E"/><stop offset="0.460526" stop-color="#8EED8E"/><stop offset="0.473684" stop-color="#8DEC8D"/><stop offset="0.486842" stop-color="#8DEB8D"/><stop offset="0.5" stop-color="#8CEA8C"/><stop offset="0.513158" stop-color="#8BE88B"/><stop offset="0.526316" stop-color="#8BE78B"/><stop offset="0.539474" stop-color="#8AE68A"/><stop offset="0.552632" stop-color="#89E589"/><stop offset="0.565789" stop-color="#89E489"/><stop offset="0.578947" stop-color="#88E388"/><stop offset="0.592105" stop-color="#87E287"/><stop offset="0.605263" stop-color="#87E087"/><stop offset="0.618421" stop-color="#86DF86"/><stop offset="0.631579" stop-color="#85DE85"/><stop offset="0.644737" stop-color="#84DD84"/><stop offset="0.657895" stop-color="#84DB84"/><stop offset="0.671053" stop-color="#83DA83"/><stop offset="0.684211" stop-color="#82D982"/><stop offset="0.697368" stop-color="#81D781"/><stop offset="0.710526" stop-color="#80D680"/><stop offset="0.723684" stop-color="#7FD57F"/><stop offset="0.736842" stop-color="#7FD37F"/><stop offset="0.75" stop-color="#7ED27E"/><stop offset="0.763158" stop-color="#7DD07D"/><stop offset="0.776316" stop-color="#7CCF7C"/><stop offset="0.789474" stop-color="#7BCD7B"/><stop offset="0.802632" stop-color="#7ACC7A"/><stop offset="0.815789" stop-color="#79CA79"/><stop offset="0.828947" stop-color="#78C878"/><stop offset="0.842105" stop-color="#77C777"/><stop offset="0.855263" stop-color="#76C576"/><stop offset="0.868421" stop-color="#75C375"/><stop offset="0.881579" stop-color="#74C274"/><stop offset="0.894737" stop-color="#73C073"/><stop offset="0.907895" stop-color="#72BE72"/><stop offset="0.921053" stop-color="#71BD71"/><stop offset="0.934211" stop-color="#70BB70"/><stop offset="0.947368" stop-color="#6FB96F"/><stop offset="0.960526" stop-color="#6EB76E"/><stop offset="0.973684" stop-color="#6DB56D"/><stop offset="0.986842" stop-color="#6CB36C"/><stop offset="1" stop-color="#6BB26B"/></linearGradient></defs><g transform="translate(-406 -575)"><rect x="408.5" y="577.5" width="3587" height="1707" stroke="#41719C" stroke-width="4.58333" stroke-miterlimit="8" fill="#FFFDB1"/><path d="M644.5 1366.5 3516.5 1366.5 3516.5 1340.5 3568.5 1392.5 3516.5 1444.5 3516.5 1418.5 644.5 1418.5Z" stroke="#41719C" stroke-width="4.58333" stroke-miterlimit="8" fill="#5B9BD5" fill-rule="evenodd"/><path d="M3087.5 921.5 3183.35 743.5 3472.5 743.5 3376.65 921.5Z" stroke="#000000" stroke-width="3.4375" stroke-miterlimit="8" fill="#CCECFF" fill-rule="evenodd"/><text font-family="Calibri,Calibri_MSFontService,sans-serif" font-weight="400" font-size="50" transform="matrix(1 0 0 1 3189.68 818)">Message </text><text font-family="Calibri,Calibri_MSFontService,sans-serif" font-weight="400" font-size="50" transform="matrix(1 0 0 1 3244.11 879)">File</text><path d="M3128.5 1375.5C3128.5 1292.1 3196.33 1224.5 3280 1224.5 3363.67 1224.5 3431.5 1292.1 3431.5 1375.5 3431.5 1458.9 3363.67 1526.5 3280 1526.5 3196.33 1526.5 3128.5 1458.9 3128.5 1375.5Z" stroke="#000000" stroke-width="3.4375" stroke-miterlimit="8" fill="#CCECFF" fill-rule="evenodd"/><text font-family="Calibri,Calibri_MSFontService,sans-serif" font-weight="400" font-size="55" transform="matrix(1 0 0 1 3174.73 1360)">Message </text><text font-family="Calibri,Calibri_MSFontService,sans-serif" font-weight="400" font-size="55" transform="matrix(1 0 0 1 3168.68 1426)">File Agent</text><path d="M3128.5 1807.49C3229.5 1744.2 3330.5 1870.77 3431.5 1807.49L3431.5 1989.51C3330.5 2052.8 3229.5 1926.23 3128.5 1989.51Z" stroke="#000000" stroke-width="3.4375" stroke-miterlimit="8" fill="#CCECFF" fill-rule="evenodd"/><text font-family="Calibri,Calibri_MSFontService,sans-serif" font-weight="400" font-size="55" transform="matrix(1 0 0 1 3137.26 1915)">MsgFile.XML</text><path d="M3282.22 921.5 3282.22 1201.58 3278.78 1201.58 3278.78 921.5ZM3294.25 1197 3280.5 1224.5 3266.75 1197Z"/><path d="M3282.22 1526.5 3282.22 1778.58 3278.78 1778.58 3278.78 1526.5ZM3294.25 1774 3280.5 1801.5 3266.75 1774Z"/><path d="M1685.5 921.5 1781.35 743.5 2070.5 743.5 1974.65 921.5Z" stroke="#000000" stroke-width="3.4375" stroke-miterlimit="8" fill="#CCECFF" fill-rule="evenodd"/><text font-family="Calibri,Calibri_MSFontService,sans-serif" font-weight="400" font-size="50" transform="matrix(1 0 0 1 1853.07 818)">CL</text><text font-family="Calibri,Calibri_MSFontService,sans-serif" font-weight="400" font-size="50" transform="matrix(1 0 0 1 1807.23 879)">Source</text><path d="M1725.5 1375.5C1725.5 1292.1 1793.33 1224.5 1877 1224.5 1960.67 1224.5 2028.5 1292.1 2028.5 1375.5 2028.5 1458.9 1960.67 1526.5 1877 1526.5 1793.33 1526.5 1725.5 1458.9 1725.5 1375.5Z" stroke="#000000" stroke-width="3.4375" stroke-miterlimit="8" fill="#CCECFF" fill-rule="evenodd"/><text font-family="Calibri,Calibri_MSFontService,sans-serif" font-weight="400" font-size="55" transform="matrix(1 0 0 1 1850.49 1360)">CL</text><text font-family="Calibri,Calibri_MSFontService,sans-serif" font-weight="400" font-size="55" transform="matrix(1 0 0 1 1810.86 1426)">Agent</text><path d="M1725.5 1807.49C1826.5 1744.2 1927.5 1870.77 2028.5 1807.49L2028.5 1989.51C1927.5 2052.8 1826.5 1926.23 1725.5 1989.51Z" stroke="#000000" stroke-width="3.4375" stroke-miterlimit="8" fill="#CCECFF" fill-rule="evenodd"/><text font-family="Calibri,Calibri_MSFontService,sans-serif" font-weight="400" font-size="55" transform="matrix(1 0 0 1 1825 1882)">.NET</text><text font-family="Calibri,Calibri_MSFontService,sans-serif" font-weight="400" font-size="55" transform="matrix(1 0 0 1 1820.7 1948)">Class</text><path d="M1871.22 921.5 1871.22 1201.58 1867.78 1201.58 1867.78 921.5ZM1883.25 1197 1869.5 1224.5 1855.75 1197Z"/><path d="M1871.22 1526.5 1871.22 1778.58 1867.78 1778.58 1867.78 1526.5ZM1883.25 1774 1869.5 1801.5 1855.75 1774Z"/><path d="M974.5 921.5 1070.35 743.5 1359.5 743.5 1263.65 921.5Z" stroke="#000000" stroke-width="3.4375" stroke-miterlimit="8" fill="#CCECFF" fill-rule="evenodd"/><text font-family="Calibri,Calibri_MSFontService,sans-serif" font-weight="400" font-size="50" transform="matrix(1 0 0 1 1051.62 818)">Display File</text><text font-family="Calibri,Calibri_MSFontService,sans-serif" font-weight="400" font-size="50" transform="matrix(1 0 0 1 1123.81 879)">DDS</text><path d="M1015.5 1375.5C1015.5 1292.1 1083.1 1224.5 1166.5 1224.5 1249.9 1224.5 1317.5 1292.1 1317.5 1375.5 1317.5 1458.9 1249.9 1526.5 1166.5 1526.5 1083.1 1526.5 1015.5 1458.9 1015.5 1375.5Z" stroke="#000000" stroke-width="3.4375" stroke-miterlimit="8" fill="#CCECFF" fill-rule="evenodd"/><text font-family="Calibri,Calibri_MSFontService,sans-serif" font-weight="400" font-size="55" transform="matrix(1 0 0 1 1041.25 1360)">Display File</text><text font-family="Calibri,Calibri_MSFontService,sans-serif" font-weight="400" font-size="55" transform="matrix(1 0 0 1 1100.51 1426)">Agent</text><path d="M1015.5 1807.49C1116.17 1744.2 1216.83 1870.77 1317.5 1807.49L1317.5 1989.51C1216.83 2052.8 1116.17 1926.23 1015.5 1989.51Z" stroke="#000000" stroke-width="3.4375" stroke-miterlimit="8" fill="#CCECFF" fill-rule="evenodd"/><text font-family="Calibri,Calibri_MSFontService,sans-serif" font-weight="400" font-size="55" transform="matrix(1 0 0 1 1044.17 1915)">Razor Page</text><path d="M1168.22 921.5 1168.22 1201.58 1164.78 1201.58 1164.78 921.5ZM1180.25 1197 1166.5 1224.5 1152.75 1197Z"/><path d="M1168.22 1526.5 1168.22 1778.58 1164.78 1778.58 1164.78 1526.5ZM1180.25 1774 1166.5 1801.5 1152.75 1774Z"/><path d="M3568.5 1389.5C3568.5 1306.1 3636.33 1238.5 3720 1238.5 3803.67 1238.5 3871.5 1306.1 3871.5 1389.5 3871.5 1472.89 3803.67 1540.5 3720 1540.5 3636.33 1540.5 3568.5 1472.89 3568.5 1389.5Z" stroke="#000000" stroke-width="3.4375" stroke-miterlimit="8" fill="#CCECFF" fill-rule="evenodd"/><text font-family="Calibri,Calibri_MSFontService,sans-serif" font-weight="400" font-size="55" transform="matrix(1 0 0 1 3667.77 1341)">Data</text><text font-family="Calibri,Calibri_MSFontService,sans-serif" font-weight="400" font-size="55" transform="matrix(1 0 0 1 3583.85 1407)">and Schema</text><text font-family="Calibri,Calibri_MSFontService,sans-serif" font-weight="400" font-size="55" transform="matrix(1 0 0 1 3653.93 1473)">Agent</text><path d="M3582.5 1792.67C3582.5 1774.9 3619.44 1760.5 3665 1760.5 3710.56 1760.5 3747.5 1774.9 3747.5 1792.67L3747.5 1921.33C3747.5 1939.1 3710.56 1953.5 3665 1953.5 3619.44 1953.5 3582.5 1939.1 3582.5 1921.33Z" fill="url(#fill0)" fill-rule="evenodd"/><path d="M3747.5 1792.67C3747.5 1810.43 3710.56 1824.83 3665 1824.83 3619.44 1824.83 3582.5 1810.43 3582.5 1792.67" stroke="#000000" stroke-width="3.4375" stroke-miterlimit="8" fill="none" fill-rule="evenodd"/><path d="M3582.5 1792.67C3582.5 1774.9 3619.44 1760.5 3665 1760.5 3710.56 1760.5 3747.5 1774.9 3747.5 1792.67L3747.5 1921.33C3747.5 1939.1 3710.56 1953.5 3665 1953.5 3619.44 1953.5 3582.5 1939.1 3582.5 1921.33Z" stroke="#000000" stroke-width="3.4375" stroke-miterlimit="8" fill="none" fill-rule="evenodd"/><text font-family="Calibri,Calibri_MSFontService,sans-serif" font-weight="400" font-size="48" transform="matrix(1 0 0 1 3611.35 1897)">Table</text><path d="M3692.5 1902.67C3692.5 1884.9 3729.44 1870.5 3775 1870.5 3820.56 1870.5 3857.5 1884.9 3857.5 1902.67L3857.5 2031.33C3857.5 2049.1 3820.56 2063.5 3775 2063.5 3729.44 2063.5 3692.5 2049.1 3692.5 2031.33Z" fill="url(#fill1)" fill-rule="evenodd"/><path d="M3857.5 1902.67C3857.5 1920.43 3820.56 1934.83 3775 1934.83 3729.44 1934.83 3692.5 1920.43 3692.5 1902.67" stroke="#000000" stroke-width="3.4375" stroke-miterlimit="8" fill="none" fill-rule="evenodd"/><path d="M3692.5 1902.67C3692.5 1884.9 3729.44 1870.5 3775 1870.5 3820.56 1870.5 3857.5 1884.9 3857.5 1902.67L3857.5 2031.33C3857.5 2049.1 3820.56 2063.5 3775 2063.5 3729.44 2063.5 3692.5 2049.1 3692.5 2031.33Z" stroke="#000000" stroke-width="3.4375" stroke-miterlimit="8" fill="none" fill-rule="evenodd"/><text font-family="Calibri,Calibri_MSFontService,sans-serif" font-weight="400" font-size="48" transform="matrix(1 0 0 1 3726.22 2007)">View</text><path d="M3610.5 720.5C3610.5 702.827 3647.44 688.5 3693 688.5 3738.56 688.5 3775.5 702.827 3775.5 720.5L3775.5 848.5C3775.5 866.173 3738.56 880.5 3693 880.5 3647.44 880.5 3610.5 866.173 3610.5 848.5Z" fill="url(#fill2)" fill-rule="evenodd"/><path d="M3775.5 720.5C3775.5 738.173 3738.56 752.5 3693 752.5 3647.44 752.5 3610.5 738.173 3610.5 720.5" stroke="#000000" stroke-width="3.4375" stroke-miterlimit="8" fill="none" fill-rule="evenodd"/><path d="M3610.5 720.5C3610.5 702.827 3647.44 688.5 3693 688.5 3738.56 688.5 3775.5 702.827 3775.5 720.5L3775.5 848.5C3775.5 866.173 3738.56 880.5 3693 880.5 3647.44 880.5 3610.5 866.173 3610.5 848.5Z" stroke="#000000" stroke-width="3.4375" stroke-miterlimit="8" fill="none" fill-rule="evenodd"/><text font-family="Calibri,Calibri_MSFontService,sans-serif" font-weight="400" font-size="48" transform="matrix(1 0 0 1 3614.21 795)">Physical</text><text font-family="Calibri,Calibri_MSFontService,sans-serif" font-weight="400" font-size="48" transform="matrix(1 0 0 1 3658.03 853)">File</text><rect x="3555.5" y="893.5" width="137" height="120" fill="#DDDDDD"/><path d="M3692.5 893.5 3732.5 853.5 3732.5 973.5 3692.5 1013.5Z" fill="#B2B2B2" fill-rule="evenodd"/><path d="M3555.5 893.5 3595.5 853.5 3732.5 853.5 3692.5 893.5Z" fill="#E4E4E4" fill-rule="evenodd"/><path d="M3555.5 893.5 3595.5 853.5 3732.5 853.5 3732.5 973.5 3692.5 1013.5 3555.5 1013.5ZM3555.5 893.5 3692.5 893.5 3732.5 853.5M3692.5 893.5 3692.5 1013.5" stroke="#000000" stroke-width="3.4375" stroke-miterlimit="8" fill="none" fill-rule="evenodd"/><text font-family="Calibri,Calibri_MSFontService,sans-serif" font-weight="400" font-size="55" transform="matrix(1 0 0 1 3571.46 938)">Data</text><text font-family="Calibri,Calibri_MSFontService,sans-serif" font-weight="400" font-size="55" transform="matrix(1 0 0 1 3571.25 1004)">Area</text><path d="M3720.5 857.667C3720.5 839.901 3757.44 825.5 3803 825.5 3848.56 825.5 3885.5 839.901 3885.5 857.667L3885.5 986.333C3885.5 1004.1 3848.56 1018.5 3803 1018.5 3757.44 1018.5 3720.5 1004.1 3720.5 986.333Z" fill="url(#fill3)" fill-rule="evenodd"/><path d="M3885.5 857.667C3885.5 875.432 3848.56 889.833 3803 889.833 3757.44 889.833 3720.5 875.432 3720.5 857.667" stroke="#000000" stroke-width="3.4375" stroke-miterlimit="8" fill="none" fill-rule="evenodd"/><path d="M3720.5 857.667C3720.5 839.901 3757.44 825.5 3803 825.5 3848.56 825.5 3885.5 839.901 3885.5 857.667L3885.5 986.333C3885.5 1004.1 3848.56 1018.5 3803 1018.5 3757.44 1018.5 3720.5 1004.1 3720.5 986.333Z" stroke="#000000" stroke-width="3.4375" stroke-miterlimit="8" fill="none" fill-rule="evenodd"/><text font-family="Calibri,Calibri_MSFontService,sans-serif" font-weight="400" font-size="48" transform="matrix(1 0 0 1 3735.38 933)">Logical</text><text font-family="Calibri,Calibri_MSFontService,sans-serif" font-weight="400" font-size="48" transform="matrix(1 0 0 1 3768.04 991)">File</text><path d="M3735.22 990.5 3735.22 1215.58 3731.78 1215.58 3731.78 990.5ZM3747.25 1211 3733.5 1238.5 3719.75 1211Z"/><path d="M3735.22 1540.5 3735.22 1765.58 3731.78 1765.58 3731.78 1540.5ZM3747.25 1761 3733.5 1788.5 3719.75 1761Z"/><path d="M2812.5 1836C2812.5 1816.95 2852.57 1801.5 2902 1801.5 2951.43 1801.5 2991.5 1816.95 2991.5 1836L2991.5 1974C2991.5 1993.05 2951.43 2008.5 2902 2008.5 2852.57 2008.5 2812.5 1993.05 2812.5 1974Z" fill="url(#fill4)" fill-rule="evenodd"/><path d="M2991.5 1836C2991.5 1855.05 2951.43 1870.5 2902 1870.5 2852.57 1870.5 2812.5 1855.05 2812.5 1836" stroke="#000000" stroke-width="3.4375" stroke-miterlimit="8" fill="none" fill-rule="evenodd"/><path d="M2812.5 1836C2812.5 1816.95 2852.57 1801.5 2902 1801.5 2951.43 1801.5 2991.5 1816.95 2991.5 1836L2991.5 1974C2991.5 1993.05 2951.43 2008.5 2902 2008.5 2852.57 2008.5 2812.5 1993.05 2812.5 1974Z" stroke="#000000" stroke-width="3.4375" stroke-miterlimit="8" fill="none" fill-rule="evenodd"/><text font-family="Calibri,Calibri_MSFontService,sans-serif" font-weight="400" font-size="48" transform="matrix(1 0 0 1 2856.53 1917)">.NET</text><text font-family="Calibri,Calibri_MSFontService,sans-serif" font-weight="400" font-size="48" transform="matrix(1 0 0 1 2815.28 1975)">Print File</text><path d="M2045.5 921.5 2141.35 743.5 2430.5 743.5 2334.65 921.5Z" stroke="#000000" stroke-width="3.4375" stroke-miterlimit="8" fill="#CCECFF" fill-rule="evenodd"/><text font-family="Calibri,Calibri_MSFontService,sans-serif" font-weight="400" font-size="50" transform="matrix(1 0 0 1 2140.67 788)">RPG /400</text><text font-family="Calibri,Calibri_MSFontService,sans-serif" font-weight="400" font-size="50" transform="matrix(1 0 0 1 2159.85 849)">RPG ILE</text><text font-family="Calibri,Calibri_MSFontService,sans-serif" font-weight="400" font-size="50" transform="matrix(1 0 0 1 2167.6 909)">Source</text><path d="M2702.5 921.5 2798.35 743.5 3087.5 743.5 2991.65 921.5Z" stroke="#000000" stroke-width="3.4375" stroke-miterlimit="8" fill="#CCECFF" fill-rule="evenodd"/><text font-family="Calibri,Calibri_MSFontService,sans-serif" font-weight="400" font-size="50" transform="matrix(1 0 0 1 2782.91 818)">Printer File </text><text font-family="Calibri,Calibri_MSFontService,sans-serif" font-weight="400" font-size="50" transform="matrix(1 0 0 1 2852.23 879)">DDS</text><path d="M2086.5 1375.5C2086.5 1292.1 2154.33 1224.5 2238 1224.5 2321.67 1224.5 2389.5 1292.1 2389.5 1375.5 2389.5 1458.9 2321.67 1526.5 2238 1526.5 2154.33 1526.5 2086.5 1458.9 2086.5 1375.5Z" stroke="#000000" stroke-width="3.4375" stroke-miterlimit="8" fill="#CCECFF" fill-rule="evenodd"/><text font-family="Calibri,Calibri_MSFontService,sans-serif" font-weight="400" font-size="55" transform="matrix(1 0 0 1 2190.8 1360)">RPG</text><text font-family="Calibri,Calibri_MSFontService,sans-serif" font-weight="400" font-size="55" transform="matrix(1 0 0 1 2171.8 1426)">Agent</text><path d="M2743.5 1375.5C2743.5 1292.1 2811.33 1224.5 2895 1224.5 2978.67 1224.5 3046.5 1292.1 3046.5 1375.5 3046.5 1458.9 2978.67 1526.5 2895 1526.5 2811.33 1526.5 2743.5 1458.9 2743.5 1375.5Z" stroke="#000000" stroke-width="3.4375" stroke-miterlimit="8" fill="#CCECFF" fill-rule="evenodd"/><text font-family="Calibri,Calibri_MSFontService,sans-serif" font-weight="400" font-size="55" transform="matrix(1 0 0 1 2773.15 1360)">Printer File</text><text font-family="Calibri,Calibri_MSFontService,sans-serif" font-weight="400" font-size="55" transform="matrix(1 0 0 1 2828.93 1426)">Agent</text><path d="M2086.5 1807.49C2187.5 1744.2 2288.5 1870.77 2389.5 1807.49L2389.5 1989.51C2288.5 2052.8 2187.5 1926.23 2086.5 1989.51Z" stroke="#000000" stroke-width="3.4375" stroke-miterlimit="8" fill="#CCECFF" fill-rule="evenodd"/><text font-family="Calibri,Calibri_MSFontService,sans-serif" font-weight="400" font-size="55" transform="matrix(1 0 0 1 2185.94 1882)">.NET</text><text font-family="Calibri,Calibri_MSFontService,sans-serif" font-weight="400" font-size="55" transform="matrix(1 0 0 1 2181.63 1948)">Class</text><path d="M2411.5 1375.5C2411.5 1292.1 2479.1 1224.5 2562.5 1224.5 2645.9 1224.5 2713.5 1292.1 2713.5 1375.5 2713.5 1458.9 2645.9 1526.5 2562.5 1526.5 2479.1 1526.5 2411.5 1458.9 2411.5 1375.5Z" stroke="#000000" stroke-width="3.4375" stroke-miterlimit="8" fill="#CCECFF" fill-rule="evenodd"/><text font-family="Calibri,Calibri_MSFontService,sans-serif" font-weight="400" font-size="55" transform="matrix(1 0 0 1 2479.24 1327)">Printer </text><text font-family="Calibri,Calibri_MSFontService,sans-serif" font-weight="400" font-size="55" transform="matrix(1 0 0 1 2482.7 1393)">O</text><text font-family="Calibri,Calibri_MSFontService,sans-serif" font-weight="400" font-size="55" transform="matrix(1 0 0 1 2519.37 1393)">-</text><text font-family="Calibri,Calibri_MSFontService,sans-serif" font-weight="400" font-size="55" transform="matrix(1 0 0 1 2535.98 1393)">Spec</text><text font-family="Calibri,Calibri_MSFontService,sans-serif" font-weight="400" font-size="55" transform="matrix(1 0 0 1 2496.08 1459)">Agent</text><path d="M2248.22 921.5 2248.22 1201.58 2244.78 1201.58 2244.78 921.5ZM2260.25 1197 2246.5 1224.5 2232.75 1197Z"/><path d="M2248.22 1526.5 2248.22 1778.58 2244.78 1778.58 2244.78 1526.5ZM2260.25 1774 2246.5 1801.5 2232.75 1774Z"/><path d="M2880.22 921.5 2880.22 1201.58 2876.78 1201.58 2876.78 921.5ZM2892.25 1197 2878.5 1224.5 2864.75 1197Z"/><path d="M2880.22 1526.5 2880.22 1778.58 2876.78 1778.58 2876.78 1526.5ZM2892.25 1774 2878.5 1801.5 2864.75 1774Z"/><path d="M2302.99 920.636 2483.46 1230.83 2480.49 1232.56 2300.01 922.364ZM2491.56 1220.82 2493.5 1251.5 2467.79 1234.65Z"/><path d="M2659.95 1498.57 2840.61 1781.26 2837.71 1783.12 2657.05 1500.43ZM2848.28 1770.92 2851.5 1801.5 2825.1 1785.73Z"/><path d="M534.5 1324.59 625.589 1233.5 790.411 1233.5 881.5 1324.59 881.5 1453.41 790.411 1544.5 625.589 1544.5 534.5 1453.41Z" stroke="#41719C" stroke-width="4.58333" stroke-miterlimit="8" fill="#5B9BD5" fill-rule="evenodd"/><text font-family="Calibri,Calibri_MSFontService,sans-serif" font-weight="400" font-size="83" transform="matrix(1 0 0 1 605.11 1367)">Synon </text><text font-family="Calibri,Calibri_MSFontService,sans-serif" font-weight="400" font-size="83" transform="matrix(1 0 0 1 598.602 1466)">Model</text><path d="M1330.5 919.5 1426.88 740.5 1715.5 740.5 1619.12 919.5Z" stroke="#000000" stroke-width="3.4375" stroke-miterlimit="8" fill="#CCECFF" fill-rule="evenodd"/><text font-family="Calibri,Calibri_MSFontService,sans-serif" font-weight="400" font-size="50" transform="matrix(1 0 0 1 1462.24 847)">Menu</text><path d="M1371.5 1373.5C1371.5 1290.1 1439.33 1222.5 1523 1222.5 1606.67 1222.5 1674.5 1290.1 1674.5 1373.5 1674.5 1456.9 1606.67 1524.5 1523 1524.5 1439.33 1524.5 1371.5 1456.9 1371.5 1373.5Z" stroke="#000000" stroke-width="3.4375" stroke-miterlimit="8" fill="#CCECFF" fill-rule="evenodd"/><text font-family="Calibri,Calibri_MSFontService,sans-serif" font-weight="400" font-size="55" transform="matrix(1 0 0 1 1456.8 1358)">Menu</text><text font-family="Calibri,Calibri_MSFontService,sans-serif" font-weight="400" font-size="55" transform="matrix(1 0 0 1 1457 1424)">Agent</text><path d="M1525.22 919.5 1525.22 1199.58 1521.78 1199.58 1521.78 919.5ZM1537.25 1195 1523.5 1222.5 1509.75 1195Z"/><path d="M1.36901-1.03918 217.513 283.707 214.775 285.786-1.36901 1.03918ZM224.325 272.782 230 303 202.421 289.409Z" transform="matrix(-1 0 0 1 1523.5 1524.5)"/><path d="M1517.83 1523.41 1727.36 1780.65 1724.69 1782.82 1515.17 1525.59ZM1733.79 1769.49 1740.5 1799.5 1712.47 1786.86Z"/></g></svg>